# Blender v2.93.3 OBJ File: 'axe.blend'
# www.blender.org
mtllib axe.mtl
o Axe_Cube.003
v 0.598114 0.641235 0.007923
v 0.546842 0.076758 0.007585
v 0.330857 0.137028 -0.081464
v 0.115090 0.175358 -0.145350
v 0.348849 0.578556 0.088659
v 0.118031 0.552444 0.156491
v 0.115090 0.175358 0.146552
v 0.330857 0.137028 0.083094
v 0.100553 0.551850 -0.151320
v 0.348849 0.578556 -0.087231
v -0.153220 0.563901 -0.170037
v -0.179045 0.163901 -0.158957
v -0.153220 0.563901 0.170825
v -0.179045 0.163901 0.159945
v -0.238674 0.563901 -0.126784
v -0.295743 0.563901 -0.045485
v -0.312387 0.163901 -0.042383
v -0.258994 0.163901 -0.118474
v -0.288081 0.563901 0.062368
v -0.238674 0.563901 0.127917
v -0.258994 0.163901 0.119818
v -0.305218 0.163901 0.058522
v 0.620769 0.430594 0.008121
v 0.590310 0.297234 0.008242
v 0.094181 0.427025 -0.176371
v 0.120805 0.301054 -0.165101
v 0.384547 0.430594 -0.090199
v 0.365826 0.297234 -0.092672
v 0.369162 0.430359 0.094806
v 0.365826 0.297234 0.093910
v 0.140612 0.426867 0.168144
v 0.120805 0.301054 0.165868
v -0.180530 0.297234 0.181091
v -0.187352 0.430594 0.187775
v -0.156306 0.430200 -0.183060
v -0.180530 0.297234 -0.180492
v -0.312111 0.430594 0.068359
v -0.323589 0.297234 0.065997
v -0.279428 0.297234 0.135559
v -0.269777 0.430594 0.140535
v -0.316741 0.297234 -0.048413
v -0.320542 0.430594 -0.050319
v -0.266408 0.430594 -0.139730
v -0.271178 0.297234 -0.134624
v 0.594715 0.250096 0.008023
v 0.568134 0.150250 0.007804
v 0.618976 0.386141 0.008161
v 0.608707 0.328900 0.008202
v -0.183252 0.560983 0.001248
v -0.205147 0.163901 -0.000911
v -0.151249 0.560139 0.075646
v -0.167021 0.164070 0.070410
v -0.157367 0.560521 -0.070179
v -0.173428 0.163901 -0.075497
v 0.010032 0.554894 -0.003339
v -0.011363 0.170782 -0.008352
v -0.013713 0.555887 0.068926
v -0.020331 0.169740 0.073093
v -0.105948 0.166703 -0.080550
v -0.089567 0.558109 -0.095531
v -0.025716 0.555597 -0.076806
v -0.041091 0.169500 -0.081909
v -0.085286 0.558104 0.094594
v -0.101659 0.166888 0.072274
v 0.540420 0.626728 0.022990
v 0.533731 0.297234 0.024156
v 0.482543 0.094700 0.025793
v 0.561418 0.430538 0.024580
v 0.569830 0.430594 -0.009217
v 0.487325 0.093366 -0.012360
v 0.540278 0.297234 -0.008391
v 0.546189 0.628178 -0.008258
v -0.081132 -1.477411 0.091150
v -0.143428 -1.510112 0.067442
v -0.145514 0.618943 0.067442
v -0.082251 0.590615 0.091150
v -0.172759 -1.510112 0.002534
v -0.150037 -1.477411 -0.060728
v -0.151327 0.621604 -0.060728
v -0.150020 0.646356 0.002534
v 0.008640 -1.510112 -0.001633
v -0.016071 -1.477411 0.061629
v -0.017343 0.621604 0.061629
v 0.006365 0.646356 -0.001633
v -0.085347 -1.477411 -0.090249
v -0.021070 -1.510112 -0.066542
v -0.023156 0.618943 -0.066542
v -0.086418 0.590615 -0.090249
v -0.103811 -1.128801 0.091150
v -0.087780 -0.611794 0.091150
v -0.110622 -0.094787 0.082817
v -0.173303 -0.086686 0.059110
v -0.151002 -0.618950 0.067442
v -0.166497 -1.151214 0.067442
v -0.179188 -0.074069 -0.069061
v -0.156633 -0.598823 -0.060728
v -0.172796 -1.123577 -0.060728
v -0.195972 -1.146593 0.002534
v -0.180398 -0.607476 0.002534
v -0.202529 -0.068359 -0.005799
v -0.050946 -0.086686 -0.074874
v -0.028819 -0.618950 -0.066542
v -0.044139 -1.151214 -0.066542
v -0.107977 -1.128801 -0.090249
v -0.092008 -0.611794 -0.090249
v -0.114789 -0.094787 -0.098582
v -0.045204 -0.074069 0.053296
v -0.022649 -0.598823 0.061629
v -0.038812 -1.123577 0.061629
v -0.014573 -1.146593 -0.001633
v 0.000938 -0.607476 -0.001633
v -0.021129 -0.068359 -0.009966
v -0.084004 0.548265 0.090635
v -0.176733 0.621885 0.002019
v -0.088171 0.548265 -0.090764
v 0.004666 0.602194 -0.002148
v -0.147231 0.575343 0.066927
v -0.153048 0.578619 -0.061243
v -0.024873 0.575343 -0.067056
v -0.019064 0.578619 0.061114
vt 0.541667 0.961746
vt 0.625000 0.961746
vt 0.625000 0.984682
vt 0.541667 0.984682
vt 0.125000 0.603301
vt 0.140318 0.541468
vt 0.163254 0.500000
vt 0.171025 0.556861
vt 0.155408 0.580842
vt 0.148597 0.622554
vt 0.156753 0.665737
vt 0.171565 0.685758
vt 0.163254 0.750000
vt 0.140318 0.708532
vt 0.127056 0.655000
vt 0.291667 0.500000
vt 0.352037 0.681110
vt 0.375000 0.750000
vt 0.350191 0.750000
vt 0.291667 0.750000
vt 0.541667 0.416667
vt 0.625000 0.416667
vt 0.625000 0.482641
vt 0.541667 0.482030
vt 0.791667 0.500000
vt 0.836746 0.500000
vt 0.828328 0.562883
vt 0.814951 0.573612
vt 0.809458 0.620970
vt 0.814562 0.668387
vt 0.827964 0.684960
vt 0.836746 0.750000
vt 0.791667 0.750000
vt 0.541667 0.333333
vt 0.625000 0.333333
vt 0.541667 0.916667
vt 0.625000 0.916667
vt 0.208333 0.500000
vt 0.208333 0.750000
vt 0.541667 0.833333
vt 0.625000 0.833333
vt 0.625000 0.500000
vt 0.642359 0.500000
vt 0.708333 0.500000
vt 0.708333 0.750000
vt 0.644288 0.557864
vt 0.541667 0.098718
vt 0.625000 0.098718
vt 0.625000 0.146699
vt 0.541667 0.146699
vt 0.541667 0.288254
vt 0.625000 0.288254
vt 0.458333 0.098718
vt 0.375000 0.098718
vt 0.375000 0.069162
vt 0.458333 0.069162
vt 0.625000 0.223850
vt 0.541667 0.223850
vt 0.458333 0.288254
vt 0.375000 0.288254
vt 0.375000 0.223850
vt 0.458333 0.223850
vt 0.375000 0.146699
vt 0.458333 0.146699
vt 0.541667 0.069162
vt 0.625000 0.069162
vt 0.458333 0.333333
vt 0.375000 0.333333
vt 0.375000 0.833333
vt 0.458333 0.833333
vt 0.458333 0.916667
vt 0.375000 0.916667
vt 0.458333 0.961746
vt 0.375000 0.961746
vt 0.458333 0.416667
vt 0.375000 0.416667
vt 0.458333 0.483232
vt 0.375000 0.477037
vt 0.458333 0.984682
vt 0.375000 0.984682
vt 0.570485 1.000000
vt 0.616255 1.000000
vt 0.619179 0.928421
vt 0.572636 0.928421
vt 0.615315 0.821579
vt 0.570052 0.821579
vt 0.183983 0.668032
vt 0.188348 0.618636
vt 0.183140 0.569175
vt 0.612590 0.678421
vt 0.568766 0.678421
vt 0.619180 0.428421
vt 0.572614 0.428421
vt 0.571112 0.571579
vt 0.615730 0.571579
vt 0.843244 0.665801
vt 0.851465 0.625137
vt 0.844619 0.586076
vt 0.859682 0.541468
vt 0.875000 0.603301
vt 0.872944 0.655000
vt 0.859682 0.708532
vt 0.611255 0.178421
vt 0.567243 0.178421
vt 0.569368 0.321579
vt 0.615858 0.321579
vt 0.616255 0.071579
vt 0.570485 0.071579
vt 0.541667 0.769657
vt 0.625000 0.769288
vt 0.375000 0.774809
vt 0.458333 0.769266
vt 0.541667 0.750000
vt 0.625000 0.750000
vt 0.402778 0.750000
vt 0.430556 0.750000
vt 0.458333 0.750000
vt 0.486111 0.750000
vt 0.513889 0.750000
vt 0.541667 0.500000
vt 0.458333 0.500000
vt 0.430556 0.500000
vt 0.402778 0.500000
vt 0.375000 0.500000
vt 0.513889 0.500000
vt 0.486111 0.500000
vt 0.619880 0.821579
vt 0.625000 0.821579
vt 0.625000 0.928421
vt 0.619880 0.928421
vt 0.619880 0.571579
vt 0.625000 0.571579
vt 0.625000 0.678421
vt 0.619880 0.678421
vt 0.803421 0.500000
vt 0.875000 0.571579
vt 0.619880 0.071579
vt 0.625000 0.071579
vt 0.625000 0.178421
vt 0.619880 0.178421
vt 0.619880 0.321579
vt 0.625000 0.321579
vt 0.625000 0.428421
vt 0.619880 0.428421
vt 0.625000 1.000000
vt 0.619880 1.000000
vt 0.417143 0.321579
vt 0.375000 0.321579
vt 0.375000 0.178421
vt 0.417143 0.178421
vt 0.417143 0.571579
vt 0.375000 0.571579
vt 0.375000 0.428421
vt 0.417143 0.428421
vt 0.417143 0.821579
vt 0.375000 0.821579
vt 0.375000 0.678421
vt 0.417143 0.678421
vt 0.125000 0.571579
vt 0.125000 0.678421
vt 0.875000 0.678421
vt 0.696579 0.750000
vt 0.803421 0.750000
vt 0.696579 0.500000
vt 0.303421 0.750000
vt 0.196579 0.750000
vt 0.196579 0.500000
vt 0.303421 0.500000
vt 0.542143 0.821579
vt 0.542143 0.678421
vt 0.479643 0.821579
vt 0.479643 0.678421
vt 0.542143 0.571579
vt 0.542143 0.428421
vt 0.479643 0.571579
vt 0.479643 0.428421
vt 0.542143 0.321579
vt 0.542143 0.178421
vt 0.479643 0.321579
vt 0.479643 0.178421
vt 0.375000 0.928421
vt 0.417143 0.928421
vt 0.417143 1.000000
vt 0.375000 1.000000
vt 0.479643 0.928421
vt 0.479643 1.000000
vt 0.542143 0.928421
vt 0.542143 1.000000
vt 0.375000 0.071579
vt 0.417143 0.071579
vt 0.479643 0.071579
vt 0.542143 0.071579
vn -0.4627 0.2088 0.8616
vn 0.0071 -1.0000 0.0000
vn -0.2688 -0.9632 0.0000
vn 0.3763 0.0751 -0.9234
vn 0.0336 0.9994 -0.0024
vn 0.2600 0.1263 -0.9573
vn 0.0590 0.1070 0.9925
vn -0.1749 -0.9846 0.0000
vn 0.2858 0.1067 0.9523
vn -0.2439 0.9698 0.0000
vn -0.1096 0.9940 0.0027
vn -0.9812 0.1800 0.0697
vn 0.0541 0.1436 -0.9882
vn -0.8113 -0.1668 0.5604
vn -0.8214 0.1975 -0.5351
vn -0.4467 -0.1476 -0.8824
vn -0.4010 0.1344 -0.9062
vn -0.4060 0.0179 -0.9137
vn -0.8499 -0.0958 -0.5182
vn -0.8696 -0.0098 -0.4937
vn -0.8144 0.2063 0.5425
vn -0.8524 0.0532 0.5202
vn 0.0521 -0.1580 -0.9861
vn 0.0400 -0.0530 -0.9978
vn -0.9964 -0.0849 0.0015
vn -0.9996 0.0288 0.0068
vn 0.2675 -0.1386 0.9535
vn 0.2931 -0.0379 0.9553
vn 0.0514 -0.1549 0.9866
vn 0.0553 -0.0373 0.9978
vn 0.2689 -0.1414 -0.9527
vn 0.2839 -0.0239 -0.9585
vn 0.4051 -0.1159 -0.9069
vn 0.4164 -0.0698 -0.9065
vn -0.4265 -0.1582 0.8905
vn -0.4552 -0.0341 0.8897
vn 0.1563 0.0282 -0.9873
vn -0.1605 0.0278 -0.9867
vn 0.0386 -0.9993 0.0005
vn -0.9775 0.0358 -0.2080
vn -0.1337 0.0181 0.9909
vn -0.9129 0.0382 0.4064
vn 0.0285 0.9996 -0.0004
vn 0.9291 -0.0479 0.3667
vn 0.9003 -0.0387 -0.4335
vn 0.2193 0.0029 0.9757
vn 0.3264 0.0603 0.9433
vn 0.3549 -0.1078 0.9287
vn 0.3619 -0.0468 0.9311
vn 0.2563 0.0317 0.9661
vn 0.2371 -0.0513 0.9701
vn 0.2418 -0.0536 0.9688
vn 0.3054 0.0364 -0.9515
vn 0.2745 -0.0528 -0.9601
vn 0.2831 -0.0668 -0.9568
vn 0.4248 -0.0282 0.9049
vn 0.9146 -0.0309 -0.4032
vn -0.0045 0.9266 -0.3760
vn -0.8410 0.3449 0.4168
vn -0.4031 0.0275 -0.9147
vn -0.3499 0.0029 0.9368
vn -0.9297 -0.0596 -0.3635
vn 0.3557 0.0230 -0.9343
vn 0.9396 0.0602 0.3370
vn 0.0000 -1.0000 0.0000
vn 0.0046 0.9260 0.3776
vn 0.0199 0.6674 0.7444
vn -0.0199 0.6674 -0.7444
vn 0.2349 -0.8229 0.5173
vn -0.2328 -0.8275 -0.5110
vn 0.9378 -0.0409 0.3449
vn 0.9352 0.0447 0.3513
vn 0.9327 -0.0278 0.3595
vn 0.3501 -0.0029 -0.9367
vn 0.3497 0.0001 -0.9369
vn 0.3476 -0.0104 -0.9376
vn -0.9314 0.0402 -0.3618
vn -0.9359 -0.0448 -0.3495
vn -0.9395 0.0280 -0.3415
vn -0.3460 -0.0224 0.9380
vn -0.3546 0.0107 0.9350
vn -0.3524 -0.0003 0.9358
vn -0.4156 -0.0269 -0.9092
vn -0.4135 0.0128 -0.9104
vn -0.4230 -0.0329 -0.9055
vn -0.9101 -0.0583 0.4102
vn -0.9092 0.0264 0.4156
vn -0.9136 -0.0316 0.4053
vn 0.9073 0.0581 -0.4164
vn 0.9104 -0.0262 -0.4128
vn 0.9057 0.0308 -0.4227
vn 0.4123 0.0267 0.9106
vn 0.4146 -0.0128 0.9099
vn 0.4049 0.0323 0.9138
vn -0.8612 0.3683 -0.3503
vn 0.3520 -0.0030 -0.9360
vn 0.9406 -0.0409 0.3370
vn -0.3517 0.0030 0.9361
vn -0.4062 0.0276 -0.9133
vn -0.9050 0.0298 0.4243
vn 0.9130 -0.0308 -0.4067
vn 0.4215 -0.0281 0.9064
usemtl Material.011
s off
f 34/1/1 13/2/1 20/3/1 40/4/1
f 17/5/2 18/6/2 12/7/2 59/8/2 54/9/2 50/10/2 52/11/2 64/12/2 14/13/2 21/14/2 22/15/2
f 3/16/3 70/17/3 2/18/3 67/19/3 8/20/3
f 27/21/4 10/22/4 72/23/4 69/24/4
f 9/25/5 11/26/5 60/27/5 61/28/5 55/29/5 57/30/5 63/31/5 13/32/5 6/33/5
f 25/34/6 9/35/6 10/22/6 27/21/6
f 31/36/7 6/37/7 13/2/7 34/1/7
f 4/38/8 3/16/8 8/20/8 7/39/8
f 29/40/9 5/41/9 6/37/9 31/36/9
f 1/42/10 72/43/10 10/44/10 5/45/10 65/46/10
f 10/44/11 9/25/11 6/33/11 5/45/11
f 37/47/12 19/48/12 16/49/12 42/50/12
f 35/51/13 11/52/13 9/35/13 25/34/13
f 38/53/14 22/54/14 21/55/14 39/56/14
f 42/50/15 16/49/15 15/57/15 43/58/15
f 36/59/16 12/60/16 18/61/16 44/62/16
f 11/52/17 35/51/17 43/58/17 15/57/17
f 35/51/18 36/59/18 44/62/18 43/58/18
f 17/63/19 41/64/19 44/62/19 18/61/19
f 41/64/20 42/50/20 43/58/20 44/62/20
f 19/48/21 37/47/21 40/65/21 20/66/21
f 37/47/22 38/53/22 39/56/22 40/65/22
f 12/60/23 36/59/23 26/67/23 4/68/23
f 36/59/24 35/51/24 25/34/24 26/67/24
f 22/54/25 38/53/25 41/64/25 17/63/25
f 38/53/26 37/47/26 42/50/26 41/64/26
f 8/69/27 30/70/27 32/71/27 7/72/27
f 30/70/28 29/40/28 31/36/28 32/71/28
f 7/72/29 32/71/29 33/73/29 14/74/29
f 32/71/30 31/36/30 34/1/30 33/73/30
f 4/68/31 26/67/31 28/75/31 3/76/31
f 26/67/32 25/34/32 27/21/32 28/75/32
f 3/76/33 28/75/33 71/77/33 70/78/33
f 28/75/34 27/21/34 69/24/34 71/77/34
f 14/74/35 33/73/35 39/79/35 21/80/35
f 33/73/36 34/1/36 40/4/36 39/79/36
f 52/81/37 51/82/37 63/83/37 64/84/37
f 64/84/38 63/83/38 57/85/38 58/86/38
f 14/13/39 64/12/39 58/87/39 56/88/39 62/89/39 59/8/39 12/7/39 4/38/39 7/39/39
f 55/90/40 56/91/40 58/86/40 57/85/40
f 60/92/41 59/93/41 62/94/41 61/95/41
f 56/91/42 55/90/42 61/95/42 62/94/42
f 13/32/43 63/31/43 51/96/43 49/97/43 53/98/43 60/27/43 11/26/43 15/99/43 16/100/43 19/101/43 20/102/43
f 49/103/44 50/104/44 54/105/44 53/106/44
f 50/104/45 49/103/45 51/107/45 52/108/45
f 59/93/46 60/92/46 53/106/46 54/105/46
f 68/109/47 65/110/47 5/41/47 29/40/47
f 67/111/48 66/112/48 30/70/48 8/69/48
f 66/112/49 68/109/49 29/40/49 30/70/49
usemtl Material.010
f 23/113/50 1/114/50 65/110/50 68/109/50
f 2/18/51 46/115/51 45/116/51 24/117/51 66/112/51 67/111/51
f 24/117/52 48/118/52 47/119/52 23/113/52 68/109/52 66/112/52
f 69/24/53 72/23/53 1/42/53 23/120/53
f 70/78/54 71/77/54 24/121/54 45/122/54 46/123/54 2/124/54
f 71/77/55 69/24/55 23/120/55 47/125/55 48/126/55 24/121/55
usemtl Material.009
f 120/127/56 83/128/56 76/129/56 113/130/56
f 119/131/57 87/132/57 84/133/57 116/134/57
f 87/132/58 79/135/58 80/136/58 84/133/58
f 117/137/59 75/138/59 80/139/59 114/140/59
f 118/141/60 79/142/60 88/143/60 115/144/60
f 113/130/61 76/129/61 75/145/61 117/146/61
f 97/147/62 78/148/62 77/149/62 98/150/62
f 103/151/63 86/152/63 85/153/63 104/154/63
f 109/155/64 82/156/64 81/157/64 110/158/64
f 77/159/65 86/152/65 81/157/65 74/160/65
f 84/133/66 80/136/66 75/161/66 83/162/66
f 83/162/67 75/161/67 76/163/67
f 79/135/68 87/132/68 88/164/68
f 74/160/69 81/157/69 82/165/69 73/166/69
f 86/152/70 77/159/70 78/167/70 85/168/70
f 120/127/71 107/169/71 112/170/71 116/134/71
f 107/169/72 108/171/72 111/172/72 112/170/72
f 108/171/73 109/155/73 110/158/73 111/172/73
f 119/131/74 101/173/74 106/174/74 115/144/74
f 101/173/75 102/175/75 105/176/75 106/174/75
f 102/175/76 103/151/76 104/154/76 105/176/76
f 118/141/77 95/177/77 100/178/77 114/140/77
f 95/177/78 96/179/78 99/180/78 100/178/78
f 96/179/79 97/147/79 98/150/79 99/180/79
f 73/181/80 89/182/80 94/183/80 74/184/80
f 89/182/81 90/185/81 93/186/81 94/183/81
f 90/185/82 91/187/82 92/188/82 93/186/82
f 78/148/83 97/147/83 104/154/83 85/153/83
f 97/147/84 96/179/84 105/176/84 104/154/84
f 96/179/85 95/177/85 106/174/85 105/176/85
f 74/189/86 94/190/86 98/150/86 77/149/86
f 94/190/87 93/191/87 99/180/87 98/150/87
f 93/191/88 92/192/88 100/178/88 99/180/88
f 86/152/89 103/151/89 110/158/89 81/157/89
f 103/151/90 102/175/90 111/172/90 110/158/90
f 102/175/91 101/173/91 112/170/91 111/172/91
f 82/156/92 109/155/92 89/182/92 73/181/92
f 109/155/93 108/171/93 90/185/93 89/182/93
f 108/171/94 107/169/94 91/187/94 90/185/94
f 79/142/95 118/141/95 114/140/95 80/139/95
f 87/132/96 119/131/96 115/144/96 88/143/96
f 83/128/97 120/127/97 116/134/97 84/133/97
f 91/187/98 113/130/98 117/146/98 92/188/98
f 95/177/99 118/141/99 115/144/99 106/174/99
f 92/192/100 117/137/100 114/140/100 100/178/100
f 101/173/101 119/131/101 116/134/101 112/170/101
f 107/169/102 120/127/102 113/130/102 91/187/102
