# Blender v2.93.3 OBJ File: 'hammer.blend'
# www.blender.org
mtllib hammer.mtl
o Hammer_Cylinder.004
v -0.000000 -0.378312 -0.035062
v -0.000000 -0.341281 -0.035062
v 0.029826 -0.378312 -0.017842
v 0.029826 -0.341281 -0.017842
v 0.029826 -0.378312 0.016598
v 0.029826 -0.341281 0.016598
v -0.000000 -0.378312 0.033818
v -0.000000 -0.341281 0.033818
v -0.029826 -0.378312 0.016598
v -0.029826 -0.341281 0.016598
v -0.029826 -0.378312 -0.017842
v -0.029826 -0.341281 -0.017842
v -0.119037 0.064924 0.055248
v -0.119037 0.057209 0.047533
v -0.119037 0.167550 0.047533
v -0.119037 0.159835 0.055248
v -0.119037 0.057209 -0.047377
v -0.119037 0.064924 -0.055092
v -0.119037 0.159835 -0.055092
v -0.119037 0.167550 -0.047377
v 0.119037 0.057209 0.047533
v 0.119037 0.064924 0.055248
v 0.119037 0.159835 0.055248
v 0.119037 0.167550 0.047533
v 0.119037 0.064924 -0.055092
v 0.119037 0.057209 -0.047377
v 0.119037 0.154518 -0.049838
v 0.119037 0.162295 -0.042060
v 0.094080 0.070140 -0.049838
v 0.094080 0.062464 -0.042161
v -0.094080 0.062464 -0.042161
v -0.094080 0.070140 -0.049838
v -0.094080 0.154619 -0.049838
v -0.094080 0.162295 -0.042161
v 0.094080 0.162295 -0.042161
v 0.094080 0.154619 -0.049838
v -0.094080 0.070140 0.049994
v -0.094080 0.062464 0.042317
v 0.094080 0.062464 0.042317
v 0.094080 0.070140 0.049994
v 0.094080 0.154619 0.049994
v 0.094080 0.162295 0.042317
v -0.094080 0.162295 0.042317
v -0.094080 0.154619 0.049994
v -0.119037 0.070241 -0.049838
v -0.119037 0.062464 -0.042060
v -0.119037 0.062464 0.042216
v -0.119037 0.070241 0.049994
v -0.119037 0.154518 0.049994
v -0.119037 0.162295 0.042216
v -0.119037 0.162295 -0.042060
v -0.119037 0.154518 -0.049838
v 0.119037 0.167550 -0.047377
v 0.119037 0.159835 -0.055092
v 0.119037 0.062464 -0.042060
v 0.119037 0.070241 -0.049838
v 0.119037 0.070241 0.049994
v 0.119037 0.062464 0.042216
v 0.119037 0.162295 0.042216
v 0.119037 0.154518 0.049994
v 0.094080 0.159854 -0.055092
v 0.094080 0.167550 -0.047397
v 0.094080 0.167550 0.047553
v 0.094080 0.159854 0.055248
v -0.094080 0.167550 -0.047397
v -0.094080 0.159854 -0.055092
v -0.094080 0.159854 0.055248
v -0.094080 0.167550 0.047553
v -0.094080 0.064905 -0.055092
v -0.094080 0.057209 -0.047397
v -0.094080 0.057209 0.047553
v -0.094080 0.064905 0.055248
v 0.094080 0.057209 -0.047397
v 0.094080 0.064905 -0.055092
v 0.094080 0.064905 0.055248
v 0.094080 0.057209 0.047553
v 0.000000 0.027549 -0.035062
v 0.000000 0.064580 -0.035062
v 0.029826 0.027549 -0.017842
v 0.029826 0.064580 -0.017842
v 0.029826 0.027549 0.016598
v 0.029826 0.064580 0.016598
v 0.000000 0.027549 0.033818
v 0.000000 0.064580 0.033818
v -0.029826 0.027549 0.016598
v -0.029826 0.064580 0.016598
v -0.029826 0.027549 -0.017842
v -0.029826 0.064580 -0.017842
v 0.000000 0.161036 -0.025869
v 0.000000 0.185912 -0.013162
v 0.021896 0.161036 -0.013227
v 0.010892 0.185912 -0.006874
v 0.021896 0.161036 0.012057
v 0.010892 0.185912 0.005703
v 0.000000 0.161036 0.024698
v 0.000000 0.185912 0.011991
v -0.021896 0.161036 0.012057
v -0.010892 0.185912 0.005703
v -0.021896 0.161036 -0.013227
v -0.010892 0.185912 -0.006874
v 0.000000 -0.357751 -0.025477
v 0.000000 0.069024 -0.025477
v 0.022194 -0.357751 -0.012663
v 0.022194 0.069024 -0.012663
v 0.022194 -0.357751 0.012965
v 0.022194 0.069024 0.012965
v 0.000000 -0.357751 0.025778
v 0.000000 0.069024 0.025778
v -0.022194 -0.357751 0.012965
v -0.022194 0.069024 0.012965
v -0.022194 -0.357751 -0.012663
v -0.022194 0.069024 -0.012663
vt 1.000000 0.500000
vt 1.000000 1.000000
vt 0.833333 1.000000
vt 0.833333 0.500000
vt 0.666667 1.000000
vt 0.666667 0.500000
vt 0.500000 1.000000
vt 0.500000 0.500000
vt 0.333333 1.000000
vt 0.333333 0.500000
vt 0.457846 0.370000
vt 0.250000 0.490000
vt 0.042154 0.370000
vt 0.042154 0.130000
vt 0.250000 0.010000
vt 0.457846 0.130000
vt 0.166667 1.000000
vt 0.166667 0.500000
vt -0.000000 1.000000
vt -0.000000 0.500000
vt 0.750000 0.490000
vt 0.957846 0.370000
vt 0.957846 0.130000
vt 0.750000 0.010000
vt 0.542154 0.130000
vt 0.542154 0.370000
vt 0.392480 0.500000
vt 0.607520 0.500000
vt 0.605522 0.500000
vt 0.394478 0.500000
vt 0.394224 0.276207
vt 0.605776 0.276207
vt 0.605776 0.472336
vt 0.394224 0.472336
vt 0.848793 0.517436
vt 0.875000 0.517480
vt 0.875000 0.732520
vt 0.848793 0.732564
vt 0.375000 0.732520
vt 0.375000 0.517480
vt 0.375000 0.519478
vt 0.375000 0.730522
vt 0.875000 0.519478
vt 0.875000 0.730522
vt 0.625000 0.517480
vt 0.625000 0.732520
vt 0.625000 0.730522
vt 0.625000 0.519478
vt 0.848793 0.730776
vt 0.848793 0.519224
vt 0.392480 1.000000
vt 0.607520 1.000000
vt 0.605522 1.000000
vt 0.394478 1.000000
vt 0.607564 0.472336
vt 0.392436 0.472336
vt 0.607520 0.750000
vt 0.392480 0.750000
vt 0.394478 0.750000
vt 0.605522 0.750000
vt 0.607564 0.973793
vt 0.392436 0.973793
vt 0.394224 0.973793
vt 0.605776 0.973793
vt 0.607520 0.250000
vt 0.392480 0.250000
vt 0.394478 0.250000
vt 0.605522 0.250000
vt 0.151207 0.519224
vt 0.347336 0.519224
vt 0.347336 0.730776
vt 0.151207 0.730776
vt 0.125000 0.517480
vt 0.125000 0.732520
vt 0.125000 0.730522
vt 0.125000 0.519478
vt 0.607564 0.276207
vt 0.392436 0.276207
vt 0.607564 0.777664
vt 0.392436 0.777664
vt 0.652664 0.517436
vt 0.652664 0.732564
vt 0.347336 0.517436
vt 0.347336 0.732564
vt 0.394224 0.777664
vt 0.605776 0.777664
vt 0.652664 0.519224
vt 0.652664 0.730776
vt 0.151207 0.732564
vt 0.151207 0.517436
vt 0.375000 0.019478
vt 0.394478 0.000000
vt 0.605522 0.000000
vt 0.625000 0.019478
vt 0.625000 0.230522
vt 0.375000 0.230522
vt 0.125000 0.500000
vt 0.151207 0.500000
vt 0.625000 0.472336
vt 0.625000 0.500000
vt 0.375000 0.750000
vt 0.347336 0.750000
vt 0.625000 0.973793
vt 0.625000 1.000000
vt 0.347336 0.500000
vt 0.375000 0.500000
vt 0.151207 0.500000
vt 0.347336 0.500000
vt 0.625000 0.250000
vt 0.625000 0.276207
vt 0.625000 0.276207
vt 0.625000 0.472336
vt 0.151207 0.750000
vt 0.125000 0.750000
vt 0.347336 0.750000
vt 0.151207 0.750000
vt 0.625000 0.750000
vt 0.625000 0.777664
vt 0.625000 0.777664
vt 0.625000 0.973793
vt 0.125000 0.500000
vt 0.125000 0.750000
vt 0.625000 1.000000
vt 0.625000 0.250000
vt 1.000000 0.500000
vt 1.000000 1.000000
vt 0.833333 1.000000
vt 0.833333 0.500000
vt 0.666667 1.000000
vt 0.666667 0.500000
vt 0.500000 1.000000
vt 0.500000 0.500000
vt 0.333333 1.000000
vt 0.333333 0.500000
vt 0.457846 0.370000
vt 0.250000 0.490000
vt 0.042154 0.370000
vt 0.042154 0.130000
vt 0.250000 0.010000
vt 0.457846 0.130000
vt 0.166667 1.000000
vt 0.166667 0.500000
vt -0.000000 1.000000
vt -0.000000 0.500000
vt 0.750000 0.490000
vt 0.957846 0.370000
vt 0.957846 0.130000
vt 0.750000 0.010000
vt 0.542154 0.130000
vt 0.542154 0.370000
vt 1.000000 0.500000
vt 1.000000 1.000000
vt 0.833333 1.000000
vt 0.833333 0.500000
vt 0.666667 1.000000
vt 0.666667 0.500000
vt 0.500000 1.000000
vt 0.500000 0.500000
vt 0.333333 1.000000
vt 0.333333 0.500000
vt 0.457846 0.370000
vt 0.250000 0.490000
vt 0.042154 0.370000
vt 0.042154 0.130000
vt 0.250000 0.010000
vt 0.457846 0.130000
vt 0.166667 1.000000
vt 0.166667 0.500000
vt -0.000000 1.000000
vt -0.000000 0.500000
vt 0.750000 0.490000
vt 0.957846 0.370000
vt 0.957846 0.130000
vt 0.750000 0.010000
vt 0.542154 0.130000
vt 0.542154 0.370000
vt 1.000000 0.500000
vt 1.000000 1.000000
vt 0.833333 1.000000
vt 0.833333 0.500000
vt 0.666667 1.000000
vt 0.666667 0.500000
vt 0.500000 1.000000
vt 0.500000 0.500000
vt 0.333333 1.000000
vt 0.333333 0.500000
vt 0.457846 0.370000
vt 0.250000 0.490000
vt 0.042154 0.370000
vt 0.042154 0.130000
vt 0.250000 0.010000
vt 0.457846 0.130000
vt 0.166667 1.000000
vt 0.166667 0.500000
vt -0.000000 1.000000
vt -0.000000 0.500000
vt 0.750000 0.490000
vt 0.957846 0.370000
vt 0.957846 0.130000
vt 0.750000 0.010000
vt 0.542154 0.130000
vt 0.542154 0.370000
vn 0.5000 0.0000 -0.8660
vn 1.0000 0.0000 0.0000
vn 0.5000 0.0000 0.8660
vn -0.5000 0.0000 0.8660
vn 0.0000 1.0000 0.0000
vn -1.0000 0.0000 0.0000
vn -0.5000 0.0000 -0.8660
vn 0.0000 -1.0000 0.0000
vn 0.0000 0.0000 -1.0000
vn -0.0000 0.0000 1.0000
vn -0.0006 -0.7071 -0.7071
vn 0.0006 0.7071 -0.7071
vn 0.0006 -0.7071 0.7071
vn -0.0006 0.7071 0.7071
vn 0.0006 -0.7071 -0.7071
vn 0.0000 -0.7071 -0.7071
vn -0.0006 0.7071 -0.7071
vn 0.0000 0.7071 -0.7071
vn -0.0006 -0.7071 0.7071
vn 0.0000 -0.7071 0.7071
vn 0.0006 0.7071 0.7071
vn 0.0000 0.7071 0.7071
vn 0.4573 0.4046 -0.7920
vn 0.9145 0.4046 0.0000
vn 0.4573 0.4046 0.7920
vn -0.4573 0.4046 0.7920
vn -0.9145 0.4046 0.0000
vn -0.4573 0.4046 -0.7920
usemtl Material.006
s off
f 1/1/1 2/2/1 4/3/1 3/4/1
f 3/4/2 4/3/2 6/5/2 5/6/2
f 5/6/3 6/5/3 8/7/3 7/8/3
f 7/8/4 8/7/4 10/9/4 9/10/4
f 4/11/5 2/12/5 12/13/5 10/14/5 8/15/5 6/16/5
f 9/10/6 10/9/6 12/17/6 11/18/6
f 11/18/7 12/17/7 2/19/7 1/20/7
f 1/21/8 3/22/8 5/23/8 7/24/8 9/25/8 11/26/8
f 25/27/2 54/28/2 27/29/2 56/30/2
f 32/31/9 33/32/9 36/33/9 29/34/9
f 65/35/5 20/36/5 15/37/5 68/38/5
f 21/39/2 26/40/2 55/41/2 58/42/2
f 15/37/6 20/36/6 51/43/6 50/44/6
f 53/45/2 24/46/2 59/47/2 28/48/2
f 65/35/2 68/38/2 43/49/2 34/50/2
f 13/51/6 16/52/6 49/53/6 48/54/6
f 61/55/6 74/56/6 29/34/6 36/33/6
f 23/57/2 22/58/2 57/59/2 60/60/2
f 67/61/2 72/62/2 37/63/2 44/64/2
f 19/65/6 18/66/6 45/67/6 52/68/6
f 31/69/8 30/70/8 39/71/8 38/72/8
f 72/62/10 67/61/10 16/52/10 13/51/10
f 17/73/6 14/74/6 47/75/6 46/76/6
f 18/66/9 19/65/9 66/77/9 69/78/9
f 22/58/10 23/57/10 64/79/10 75/80/10
f 55/41/2 56/30/2 27/29/2 28/48/2 59/47/2 60/60/2 57/59/2 58/42/2
f 53/45/5 62/81/5 63/82/5 24/46/5
f 74/56/9 61/55/9 54/28/9 25/27/9
f 73/83/8 26/40/8 21/39/8 76/84/8
f 40/85/10 41/86/10 44/64/10 37/63/10
f 63/82/6 62/81/6 35/87/6 42/88/6
f 69/78/2 66/77/2 33/32/2 32/31/2
f 71/89/2 70/90/2 31/69/2 38/72/2
f 47/91/6 48/92/6 49/93/6 50/94/6 51/95/6 52/68/6 45/67/6 46/96/6
f 75/80/6 64/79/6 41/86/6 40/85/6
f 35/87/5 34/50/5 43/49/5 42/88/5
f 73/83/6 76/84/6 39/71/6 30/70/6
f 70/90/11 17/73/11 18/97/11 69/98/11
f 62/99/12 53/100/12 54/28/12 61/55/12
f 76/84/13 21/39/13 22/101/13 75/102/13
f 68/103/14 15/104/14 16/52/14 67/61/14
f 26/40/15 73/83/15 74/105/15 25/106/15
f 30/70/16 31/69/16 32/107/16 29/108/16
f 20/109/17 65/110/17 66/77/17 19/65/17
f 34/111/18 35/112/18 36/33/18 33/32/18
f 14/74/19 71/89/19 72/113/19 13/114/19
f 38/72/20 39/71/20 40/115/20 37/116/20
f 24/117/21 63/118/21 64/79/21 23/57/21
f 42/119/22 43/120/22 44/64/22 41/86/22
f 45/121/6 18/97/6 17/73/6 46/76/6
f 13/114/6 48/122/6 47/75/6 14/74/6
f 15/104/6 50/123/6 49/53/6 16/52/6
f 19/65/6 52/68/6 51/124/6 20/109/6
f 55/41/2 26/40/2 25/27/2 56/30/2
f 53/45/2 28/48/2 27/29/2 54/28/2
f 57/59/2 22/58/2 21/39/2 58/42/2
f 23/57/2 60/60/2 59/47/2 24/46/2
f 41/86/6 64/79/6 63/118/6 42/119/6
f 61/55/6 36/33/6 35/112/6 62/99/6
f 33/32/2 66/77/2 65/110/2 34/111/2
f 67/61/2 44/64/2 43/120/2 68/103/2
f 37/116/2 72/113/2 71/89/2 38/72/2
f 69/98/2 32/107/2 31/69/2 70/90/2
f 29/108/6 74/105/6 73/83/6 30/70/6
f 75/102/6 40/115/6 39/71/6 76/84/6
f 17/73/8 70/90/8 71/89/8 14/74/8
f 77/125/1 78/126/1 80/127/1 79/128/1
f 79/128/2 80/127/2 82/129/2 81/130/2
f 81/130/3 82/129/3 84/131/3 83/132/3
f 83/132/4 84/131/4 86/133/4 85/134/4
f 80/135/5 78/136/5 88/137/5 86/138/5 84/139/5 82/140/5
f 85/134/6 86/133/6 88/141/6 87/142/6
f 87/142/7 88/141/7 78/143/7 77/144/7
f 77/145/8 79/146/8 81/147/8 83/148/8 85/149/8 87/150/8
f 89/151/23 90/152/23 92/153/23 91/154/23
f 91/154/24 92/153/24 94/155/24 93/156/24
f 93/156/25 94/155/25 96/157/25 95/158/25
f 95/158/26 96/157/26 98/159/26 97/160/26
f 92/161/5 90/162/5 100/163/5 98/164/5 96/165/5 94/166/5
f 97/160/27 98/159/27 100/167/27 99/168/27
f 99/168/28 100/167/28 90/169/28 89/170/28
f 89/171/8 91/172/8 93/173/8 95/174/8 97/175/8 99/176/8
usemtl Material.005
f 101/177/1 102/178/1 104/179/1 103/180/1
f 103/180/2 104/179/2 106/181/2 105/182/2
f 105/182/3 106/181/3 108/183/3 107/184/3
f 107/184/4 108/183/4 110/185/4 109/186/4
f 104/187/5 102/188/5 112/189/5 110/190/5 108/191/5 106/192/5
f 109/186/6 110/185/6 112/193/6 111/194/6
f 111/194/7 112/193/7 102/195/7 101/196/7
f 101/197/8 103/198/8 105/199/8 107/200/8 109/201/8 111/202/8
