# Blender v2.93.3 OBJ File: 'hoe.blend'
# www.blender.org
mtllib hoe.mtl
o Hoe_Cylinder.004
v -0.041855 -1.240530 0.000000
v -0.065839 0.927343 0.000000
v -0.029075 -1.240530 -0.030852
v -0.046035 0.927343 -0.047811
v 0.001777 -1.240530 -0.043632
v 0.001777 0.927343 -0.067615
v 0.032629 -1.240530 -0.030852
v 0.049588 0.927343 -0.047811
v 0.045409 -1.240530 0.000000
v 0.069392 0.927343 0.000000
v 0.032629 -1.240530 0.030852
v 0.049588 0.927343 0.047812
v 0.001777 -1.240530 0.043632
v 0.001777 0.927343 0.067616
v -0.029075 -1.240530 0.030852
v -0.046035 0.927343 0.047812
v -0.076244 -1.222582 0.000000
v -0.053393 -1.222582 -0.055169
v 0.001777 -1.222582 -0.078021
v 0.056946 -1.222582 -0.055169
v 0.079798 -1.222582 0.000000
v 0.056946 -1.222582 0.055170
v 0.001777 -1.222582 0.078021
v -0.053393 -1.222582 0.055170
v -0.067404 -1.176116 0.000000
v -0.047141 -1.176116 -0.048918
v 0.001777 -1.176116 -0.069180
v 0.050695 -1.176116 -0.048918
v 0.070957 -1.176116 0.000000
v 0.050695 -1.176116 0.048918
v 0.001777 -1.176116 0.069181
v -0.047141 -1.176116 0.048918
v -0.050151 -1.196578 -0.051927
v 0.001777 -1.196578 -0.073436
v 0.053704 -1.196578 -0.051927
v 0.075213 -1.196578 0.000000
v 0.053704 -1.196578 0.051928
v 0.001777 -1.196578 0.073437
v -0.050151 -1.196578 0.051928
v -0.071660 -1.196578 0.000000
v -0.069804 -1.240530 0.000000
v -0.048838 -1.240530 -0.050615
v 0.001777 -1.240530 -0.071581
v 0.052392 -1.240530 -0.050615
v 0.073358 -1.240530 0.000000
v 0.052392 -1.240530 0.050615
v 0.001777 -1.240530 0.071581
v -0.048838 -1.240530 0.050615
v -0.020655 -1.258282 0.000000
v -0.014085 -1.258282 -0.015862
v 0.001777 -1.258282 -0.022432
v 0.017639 -1.258282 -0.015862
v 0.024209 -1.258282 0.000000
v 0.017639 -1.258282 0.015862
v 0.001777 -1.258282 0.022432
v -0.014085 -1.258282 0.015862
v -0.088223 0.904602 0.000000
v -0.099047 1.208602 0.000000
v -0.061863 0.904602 -0.063639
v -0.069516 1.208602 -0.071293
v 0.001777 0.904602 -0.090000
v 0.001777 1.208602 -0.100824
v 0.065416 0.904602 -0.063639
v 0.469121 1.164561 -0.328456
v 0.091777 0.904602 0.000000
v 0.102601 1.208602 0.000000
v 0.065416 0.904602 0.063640
v 0.469121 1.164561 0.328457
v 0.001777 0.904602 0.090000
v 0.001777 1.208602 0.100824
v -0.061863 0.904602 0.063640
v -0.069516 1.208602 0.071293
v -0.069516 1.174602 -0.071293
v -0.099047 1.174602 0.000000
v 0.001777 1.174602 -0.100824
v 0.469121 1.161704 -0.328456
v 0.102601 1.174602 0.000000
v 0.469121 1.161704 0.328457
v 0.001777 1.174602 0.100824
v -0.069516 1.174602 0.071293
v -0.061863 1.174602 -0.063639
v -0.088223 1.174602 0.000000
v 0.001777 1.174602 -0.090000
v 0.065416 1.174602 -0.063639
v 0.091777 1.174602 0.000000
v 0.065416 1.174602 0.063640
v 0.001777 1.174602 0.090000
v -0.061863 1.174602 0.063640
v -0.061863 1.208602 -0.063639
v -0.088223 1.208602 0.000000
v 0.001777 1.208602 -0.090000
v 0.065416 1.208602 -0.063639
v 0.091777 1.208602 0.000000
v 0.065416 1.208602 0.063640
v 0.001777 1.208602 0.090000
v -0.061863 1.208602 0.063640
v 0.073070 1.208602 -0.071293
v 0.073070 1.174602 -0.071293
v 0.073070 1.208602 0.071293
v 0.073070 1.174602 0.071293
v 0.527904 1.161704 0.000000
v 0.527904 1.164561 0.000000
v 0.172083 1.203974 -0.152669
v 0.275221 1.198277 -0.231752
v 0.371952 1.185937 -0.296866
v 0.371952 1.172305 -0.296866
v 0.275221 1.178099 -0.231752
v 0.172083 1.179230 -0.152669
v 0.172083 1.179230 0.152670
v 0.275221 1.178099 0.231752
v 0.371952 1.172305 0.296867
v 0.371952 1.185937 0.296867
v 0.275221 1.198277 0.231752
v 0.172083 1.203974 0.152670
v 0.408177 1.173849 0.000000
v 0.294881 1.179539 0.000000
v 0.187966 1.180614 0.000000
v 0.187966 1.202589 0.000000
v 0.294881 1.196838 0.000000
v 0.408177 1.184392 0.000000
v 0.446361 1.173898 -0.322444
v 0.446361 1.166033 0.322444
v 0.497611 1.173536 0.000000
v 0.446361 1.166033 -0.322444
v 0.446361 1.173898 0.322444
v 0.497611 1.166395 0.000000
v -0.033546 1.207186 0.000000
v -0.019376 1.234153 0.000000
v -0.023200 1.207186 -0.024977
v -0.013181 1.234153 -0.014957
v 0.001777 1.207186 -0.035323
v 0.001777 1.234153 -0.021153
v 0.026754 1.207186 -0.024977
v 0.016734 1.234153 -0.014957
v 0.037100 1.207186 0.000000
v 0.022930 1.234153 0.000000
v 0.026754 1.207186 0.024977
v 0.016734 1.234153 0.014958
v 0.001777 1.207186 0.035323
v 0.001777 1.234153 0.021153
v -0.023200 1.207186 0.024977
v -0.013181 1.234153 0.014958
vt 1.000000 0.527200
vt 1.000000 1.000000
vt 0.875000 1.000000
vt 0.875000 0.527200
vt 0.750000 1.000000
vt 0.750000 0.527200
vt 0.625000 1.000000
vt 0.625000 0.527200
vt 0.500000 1.000000
vt 0.500000 0.527200
vt 0.375000 1.000000
vt 0.375000 0.527200
vt 0.250000 1.000000
vt 0.250000 0.527200
vt 0.419706 0.419706
vt 0.250000 0.490000
vt 0.080294 0.419706
vt 0.010000 0.250000
vt 0.080294 0.080294
vt 0.250000 0.010000
vt 0.419706 0.080294
vt 0.490000 0.250000
vt 0.125000 1.000000
vt 0.125000 0.527200
vt 0.000000 1.000000
vt 0.000000 0.527200
vt 0.750000 0.103709
vt 0.646557 0.146557
vt 0.646557 0.146557
vt 0.750000 0.103709
vt 0.125000 0.500000
vt 0.125000 0.507579
vt 0.000000 0.507579
vt 0.000000 0.500000
vt 0.250000 0.500000
vt 0.250000 0.507579
vt 0.375000 0.500000
vt 0.375000 0.507579
vt 0.500000 0.500000
vt 0.500000 0.507579
vt 0.625000 0.500000
vt 0.625000 0.507579
vt 0.750000 0.500000
vt 0.750000 0.507579
vt 0.875000 0.500000
vt 0.875000 0.507579
vt 1.000000 0.500000
vt 1.000000 0.507579
vt 0.125000 0.518559
vt 0.000000 0.518560
vt 0.250000 0.518560
vt 0.375000 0.518560
vt 0.500000 0.518560
vt 0.625000 0.518559
vt 0.750000 0.518560
vt 0.875000 0.518560
vt 1.000000 0.518560
vt 0.853443 0.353443
vt 0.750000 0.396291
vt 0.750000 0.490000
vt 0.919706 0.419706
vt 0.896291 0.250000
vt 0.990000 0.250000
vt 0.853443 0.146557
vt 0.919706 0.080294
vt 0.750000 0.010000
vt 0.580294 0.080294
vt 0.603709 0.250000
vt 0.510000 0.250000
vt 0.646557 0.353443
vt 0.580294 0.419706
vt 0.750000 0.396291
vt 0.853443 0.353443
vt 0.896291 0.250000
vt 0.853443 0.146557
vt 0.603709 0.250000
vt 0.646557 0.353443
vt 1.000000 0.500000
vt 1.000000 1.000000
vt 0.875000 1.000000
vt 0.875000 0.500000
vt 0.750000 1.000000
vt 0.750000 0.500000
vt 0.625000 1.000000
vt 0.625000 0.500000
vt 0.500000 1.000000
vt 0.500000 0.500000
vt 0.375000 1.000000
vt 0.375000 0.500000
vt 0.250000 1.000000
vt 0.250000 0.500000
vt 0.419706 0.419706
vt 0.250000 0.490000
vt 0.080294 0.419706
vt 0.010000 0.250000
vt 0.080294 0.080294
vt 0.250000 0.010000
vt 0.419706 0.080294
vt 0.490000 0.250000
vt 0.125000 1.000000
vt 0.125000 0.500000
vt 0.000000 1.000000
vt 0.000000 0.500000
vt 0.750000 0.490000
vt 0.919706 0.419706
vt 0.990000 0.250000
vt 0.919706 0.080294
vt 0.750000 0.010000
vt 0.580294 0.080294
vt 0.510000 0.250000
vt 0.580294 0.419706
vt 0.250000 0.490000
vt 0.419706 0.419706
vt 0.419706 0.419706
vt 0.250000 0.490000
vt 0.490000 0.250000
vt 0.490000 0.250000
vt 0.419706 0.080294
vt 0.419706 0.080294
vt 0.080294 0.080294
vt 0.010000 0.250000
vt 0.010000 0.250000
vt 0.080294 0.080294
vt 0.080294 0.419706
vt 0.080294 0.419706
vt 0.419706 0.419706
vt 0.250000 0.490000
vt 0.490000 0.250000
vt 0.419706 0.080294
vt 0.250000 0.010000
vt 0.250000 0.010000
vt 0.080294 0.080294
vt 0.010000 0.250000
vt 0.080294 0.419706
vt 0.250000 0.010000
vt 0.419706 0.080294
vt 0.419706 0.080294
vt 0.080294 0.080294
vt 0.080294 0.080294
vt 0.250000 0.010000
vt 0.250000 0.010000
vt 0.080294 0.080294
vt 0.250000 0.010000
vt 0.250000 0.010000
vt 0.080294 0.080294
vt 0.250000 0.010000
vt 0.080294 0.080294
vt 0.419706 0.080294
vt 0.419706 0.080294
vt 0.419706 0.080294
vt 0.250000 0.010000
vt 0.080294 0.080294
vt 0.080294 0.080294
vt 0.250000 0.010000
vt 0.080294 0.080294
vt 0.250000 0.010000
vt 0.419706 0.080294
vt 0.419706 0.080294
vt 0.419706 0.080294
vt 0.419706 0.080294
vt 0.419706 0.080294
vt 0.080294 0.080294
vt 0.080294 0.080294
vt 1.000000 0.500000
vt 1.000000 1.000000
vt 0.875000 1.000000
vt 0.875000 0.500000
vt 0.750000 1.000000
vt 0.750000 0.500000
vt 0.625000 1.000000
vt 0.625000 0.500000
vt 0.500000 1.000000
vt 0.500000 0.500000
vt 0.375000 1.000000
vt 0.375000 0.500000
vt 0.250000 1.000000
vt 0.250000 0.500000
vt 0.419706 0.419706
vt 0.250000 0.490000
vt 0.080294 0.419706
vt 0.010000 0.250000
vt 0.080294 0.080294
vt 0.250000 0.010000
vt 0.419706 0.080294
vt 0.490000 0.250000
vt 0.125000 1.000000
vt 0.125000 0.500000
vt 0.000000 1.000000
vt 0.000000 0.500000
vt 0.750000 0.490000
vt 0.919706 0.419706
vt 0.990000 0.250000
vt 0.919706 0.080294
vt 0.750000 0.010000
vt 0.580294 0.080294
vt 0.510000 0.250000
vt 0.580294 0.419706
vt 0.250000 0.010000
vt 0.250000 0.010000
vn -0.9239 0.0007 -0.3827
vn -0.3827 0.0007 -0.9239
vn 0.3827 0.0007 -0.9239
vn 0.9239 0.0007 -0.3827
vn 0.9239 0.0007 0.3827
vn 0.3827 0.0007 0.9239
vn 0.0000 1.0000 0.0000
vn -0.3827 0.0007 0.9239
vn -0.9239 0.0007 0.3827
vn 0.6204 -0.7410 0.2570
vn -0.8769 -0.3147 0.3632
vn -0.3632 -0.3147 0.8769
vn 0.3632 -0.3147 0.8769
vn 0.8769 -0.3147 0.3632
vn 0.8769 -0.3147 -0.3632
vn 0.3632 -0.3147 -0.8769
vn -0.3632 -0.3147 -0.8769
vn -0.8769 -0.3147 -0.3632
vn -0.9073 0.1887 0.3758
vn -0.3758 0.1887 0.9073
vn 0.3758 0.1887 0.9073
vn 0.9073 0.1887 0.3758
vn 0.9073 0.1887 -0.3758
vn 0.3758 0.1887 -0.9073
vn -0.3758 0.1887 -0.9073
vn -0.9073 0.1887 -0.3758
vn -0.9119 0.1608 -0.3777
vn -0.3777 0.1608 -0.9119
vn 0.3777 0.1608 -0.9119
vn 0.9119 0.1608 -0.3777
vn 0.9119 0.1608 0.3777
vn 0.3777 0.1608 0.9119
vn -0.3777 0.1608 0.9119
vn -0.9119 0.1608 0.3777
vn 0.0000 -1.0000 0.0000
vn 0.2570 -0.7410 -0.6204
vn -0.6204 -0.7410 -0.2570
vn -0.6204 -0.7410 0.2570
vn 0.2570 -0.7410 0.6204
vn 0.6204 -0.7410 -0.2570
vn -0.2570 -0.7410 -0.6204
vn -0.2570 -0.7410 0.6204
vn -0.9239 0.0000 -0.3827
vn -0.3827 0.0000 -0.9239
vn 0.3827 0.0000 -0.9239
vn 0.9239 0.0000 -0.3827
vn 0.9239 0.0000 0.3827
vn 0.3827 0.0000 0.9239
vn -0.3827 0.0000 0.9239
vn -0.9239 0.0000 0.3827
vn -0.6349 0.0000 -0.7726
vn -0.6349 0.0000 0.7726
vn 0.0554 -0.9985 -0.0051
vn 0.0554 -0.9985 0.0051
vn 0.0554 0.9985 -0.0051
vn 0.0554 0.9985 0.0051
vn 0.1359 0.9906 0.0161
vn 0.1152 0.9933 0.0066
vn 0.0553 0.9985 -0.0022
vn 0.1359 0.9906 -0.0161
vn 0.1152 0.9933 -0.0066
vn 0.0553 0.9985 0.0022
vn -0.0812 -0.9966 -0.0145
vn -0.0512 -0.9986 -0.0110
vn -0.0075 -0.9999 -0.0080
vn -0.0812 -0.9966 0.0145
vn -0.0512 -0.9986 0.0110
vn -0.0075 -0.9999 0.0080
vn -0.3251 0.0000 0.9457
vn -0.5584 0.0000 0.8296
vn -0.6085 -0.0000 0.7936
vn -0.3251 0.0000 -0.9457
vn -0.5584 0.0000 -0.8296
vn -0.6085 0.0000 -0.7936
vn -0.2554 0.0000 -0.9668
vn -0.2554 0.0000 0.9668
vn -0.8311 0.4367 -0.3443
vn -0.3443 0.4367 -0.8311
vn 0.3443 0.4367 -0.8311
vn 0.8311 0.4367 -0.3443
vn 0.8311 0.4367 0.3443
vn 0.3443 0.4367 0.8311
vn -0.3443 0.4367 0.8311
vn -0.8311 0.4367 0.3443
vn 0.9844 0.0000 -0.1762
vn 0.9844 0.0000 0.1762
vn -0.1644 -0.9860 0.0283
vn -0.1644 -0.9860 -0.0283
vn 0.3204 0.9458 -0.0536
vn 0.3204 0.9458 0.0536
usemtl Material.006
s off
f 25/1/1 2/2/1 4/3/1 26/4/1
f 26/4/2 4/3/2 6/5/2 27/6/2
f 27/6/3 6/5/3 8/7/3 28/8/3
f 28/8/4 8/7/4 10/9/4 29/10/4
f 29/10/5 10/9/5 12/11/5 30/12/5
f 30/12/6 12/11/6 14/13/6 31/14/6
f 4/15/7 2/16/7 16/17/7 14/18/7 12/19/7 10/20/7 8/21/7 6/22/7
f 31/14/8 14/13/8 16/23/8 32/24/8
f 32/24/9 16/23/9 2/25/9 25/26/9
usemtl Material.005
f 9/27/10 11/28/10 54/29/10 53/30/10
f 48/31/11 24/32/11 17/33/11 41/34/11
f 47/35/12 23/36/12 24/32/12 48/31/12
f 46/37/13 22/38/13 23/36/13 47/35/13
f 45/39/14 21/40/14 22/38/14 46/37/14
f 44/41/15 20/42/15 21/40/15 45/39/15
f 43/43/16 19/44/16 20/42/16 44/41/16
f 42/45/17 18/46/17 19/44/17 43/43/17
f 41/47/18 17/48/18 18/46/18 42/45/18
f 39/49/19 32/24/19 25/26/19 40/50/19
f 38/51/20 31/14/20 32/24/20 39/49/20
f 37/52/21 30/12/21 31/14/21 38/51/21
f 36/53/22 29/10/22 30/12/22 37/52/22
f 35/54/23 28/8/23 29/10/23 36/53/23
f 34/55/24 27/6/24 28/8/24 35/54/24
f 33/56/25 26/4/25 27/6/25 34/55/25
f 40/57/26 25/1/26 26/4/26 33/56/26
f 17/48/27 40/57/27 33/56/27 18/46/27
f 18/46/28 33/56/28 34/55/28 19/44/28
f 19/44/29 34/55/29 35/54/29 20/42/29
f 20/42/30 35/54/30 36/53/30 21/40/30
f 21/40/31 36/53/31 37/52/31 22/38/31
f 22/38/32 37/52/32 38/51/32 23/36/32
f 23/36/33 38/51/33 39/49/33 24/32/33
f 24/32/34 39/49/34 40/50/34 17/33/34
f 3/58/35 1/59/35 41/60/35 42/61/35
f 5/62/35 3/58/35 42/61/35 43/63/35
f 7/64/35 5/62/35 43/63/35 44/65/35
f 9/27/35 7/64/35 44/65/35 45/66/35
f 11/28/35 9/27/35 45/66/35 46/67/35
f 13/68/35 11/28/35 46/67/35 47/69/35
f 15/70/35 13/68/35 47/69/35 48/71/35
f 1/59/35 15/70/35 48/71/35 41/60/35
f 49/72/35 50/73/35 51/74/35 52/75/35 53/30/35 54/29/35 55/76/35 56/77/35
f 5/62/36 7/64/36 52/75/36 51/74/36
f 1/59/37 3/58/37 50/73/37 49/72/37
f 15/70/38 1/59/38 49/72/38 56/77/38
f 11/28/39 13/68/39 55/76/39 54/29/39
f 7/64/40 9/27/40 53/30/40 52/75/40
f 3/58/41 5/62/41 51/74/41 50/73/41
f 13/68/42 15/70/42 56/77/42 55/76/42
usemtl Material.008
f 57/78/43 82/79/43 81/80/43 59/81/43
f 59/81/44 81/80/44 83/82/44 61/83/44
f 61/83/45 83/82/45 84/84/45 63/85/45
f 63/85/46 84/84/46 85/86/46 65/87/46
f 65/87/47 85/86/47 86/88/47 67/89/47
f 67/89/48 86/88/48 87/90/48 69/91/48
f 89/92/7 90/93/7 96/94/7 95/95/7 94/96/7 93/97/7 92/98/7 91/99/7
f 69/91/49 87/90/49 88/100/49 71/101/49
f 71/101/50 88/100/50 82/102/50 57/103/50
f 57/104/35 59/105/35 61/106/35 63/107/35 65/108/35 67/109/35 69/110/35 71/111/35
f 58/112/43 60/113/43 73/114/43 74/115/43
f 60/113/44 62/116/44 75/117/44 73/114/44
f 62/116/45 97/118/45 98/119/45 75/117/45
f 99/120/48 70/121/48 79/122/48 100/123/48
f 70/121/49 72/124/49 80/125/49 79/122/49
f 72/124/50 58/112/50 74/115/50 80/125/50
f 74/115/35 73/114/35 81/126/35 82/127/35
f 73/114/35 75/117/35 83/128/35 81/126/35
f 75/117/35 98/119/35 84/129/35 83/128/35
f 98/119/35 77/130/35 85/131/35 84/129/35
f 77/130/35 100/123/35 86/132/35 85/131/35
f 100/123/35 79/122/35 87/133/35 86/132/35
f 79/122/35 80/125/35 88/134/35 87/133/35
f 80/125/35 74/115/35 82/127/35 88/134/35
f 60/113/7 58/112/7 90/93/7 89/92/7
f 62/116/7 60/113/7 89/92/7 91/99/7
f 97/118/7 62/116/7 91/99/7 92/98/7
f 66/135/7 97/118/7 92/98/7 93/97/7
f 99/120/7 66/135/7 93/97/7 94/96/7
f 70/121/7 99/120/7 94/96/7 95/95/7
f 72/124/7 70/121/7 95/95/7 96/94/7
f 58/112/7 72/124/7 96/94/7 90/93/7
f 103/136/51 108/137/51 98/119/51 97/118/51
f 109/138/52 114/139/52 99/120/52 100/123/52
f 108/137/53 117/140/53 77/130/53 98/119/53
f 117/140/54 109/138/54 100/123/54 77/130/54
f 118/141/55 103/136/55 97/118/55 66/135/55
f 114/139/56 118/141/56 66/135/56 99/120/56
f 125/142/57 123/143/57 120/144/57 112/145/57
f 112/145/58 120/144/58 119/146/58 113/147/58
f 113/147/59 119/146/59 118/141/59 114/139/59
f 123/143/60 121/148/60 105/149/60 120/144/60
f 120/144/61 105/149/61 104/150/61 119/146/61
f 119/146/62 104/150/62 103/136/62 118/141/62
f 126/151/63 122/152/63 111/153/63 115/154/63
f 115/154/64 111/153/64 110/155/64 116/156/64
f 116/156/65 110/155/65 109/138/65 117/140/65
f 124/157/66 126/151/66 115/154/66 106/158/66
f 106/158/67 115/154/67 116/156/67 107/159/67
f 107/159/68 116/156/68 117/140/68 108/137/68
f 122/152/69 125/142/69 112/145/69 111/153/69
f 111/153/70 112/145/70 113/147/70 110/155/70
f 110/155/71 113/147/71 114/139/71 109/138/71
f 121/148/72 124/157/72 106/158/72 105/149/72
f 105/149/73 106/158/73 107/159/73 104/150/73
f 104/150/74 107/159/74 108/137/74 103/136/74
f 64/160/75 76/161/75 124/157/75 121/148/75
f 78/162/76 68/163/76 125/142/76 122/152/76
f 127/164/77 128/165/77 130/166/77 129/167/77
f 129/167/78 130/166/78 132/168/78 131/169/78
f 131/169/79 132/168/79 134/170/79 133/171/79
f 133/171/80 134/170/80 136/172/80 135/173/80
f 135/173/81 136/172/81 138/174/81 137/175/81
f 137/175/82 138/174/82 140/176/82 139/177/82
f 130/178/7 128/179/7 142/180/7 140/181/7 138/182/7 136/183/7 134/184/7 132/185/7
f 139/177/83 140/176/83 142/186/83 141/187/83
f 141/187/84 142/186/84 128/188/84 127/189/84
f 127/190/35 129/191/35 131/192/35 133/193/35 135/194/35 137/195/35 139/196/35 141/197/35
usemtl Material.007
f 64/160/85 102/198/85 101/199/85 76/161/85
f 102/198/86 68/163/86 78/162/86 101/199/86
f 76/161/87 101/199/87 126/151/87 124/157/87
f 101/199/88 78/162/88 122/152/88 126/151/88
f 102/198/89 64/160/89 121/148/89 123/143/89
f 68/163/90 102/198/90 123/143/90 125/142/90
