# Blender v2.93.3 OBJ File: 'pickaxe.blend'
# www.blender.org
mtllib pickaxe.mtl
o Pickaxe_Cube.002
v -0.401769 0.465806 0.000190
v 0.404090 0.465059 0.000385
v 0.357544 0.472568 -0.004067
v 0.306463 0.478188 -0.008262
v 0.255381 0.482951 -0.012283
v 0.204299 0.488566 -0.016390
v 0.153217 0.492898 -0.021085
v 0.102135 0.494609 -0.026249
v 0.051053 0.492958 -0.034136
v -0.000028 0.491095 -0.049654
v -0.051110 0.492958 -0.034136
v -0.102192 0.494605 -0.026249
v -0.153274 0.492882 -0.021085
v -0.204356 0.488543 -0.016390
v -0.255438 0.482926 -0.012283
v -0.306520 0.478169 -0.008262
v -0.357601 0.472559 -0.004067
v -0.357601 0.481866 -0.004067
v -0.306520 0.496933 -0.008262
v -0.255438 0.509513 -0.012283
v -0.204356 0.521687 -0.016390
v -0.153274 0.531989 -0.021085
v -0.102192 0.538142 -0.026249
v -0.051110 0.540314 -0.034136
v -0.000028 0.542177 -0.049654
v 0.051053 0.540314 -0.034136
v 0.102135 0.538150 -0.026249
v 0.153217 0.532018 -0.021085
v 0.204299 0.521730 -0.016390
v 0.255381 0.509561 -0.012283
v 0.306463 0.496974 -0.008262
v 0.357544 0.481891 -0.004067
v -0.357601 0.472760 0.004069
v -0.306520 0.478438 0.008264
v -0.255438 0.483218 0.012285
v -0.204356 0.488796 0.016392
v -0.153274 0.493050 0.021087
v -0.102192 0.494647 0.026250
v -0.051110 0.492958 0.034138
v -0.000028 0.491095 0.049656
v 0.051053 0.492958 0.034138
v 0.102135 0.494639 0.026250
v 0.153217 0.493015 0.021087
v 0.204299 0.488742 0.016392
v 0.255381 0.483154 0.012285
v 0.306463 0.478375 0.008264
v 0.357544 0.472708 0.004069
v 0.357544 0.482031 0.004069
v 0.306463 0.497161 0.008264
v 0.255381 0.509764 0.012285
v 0.204299 0.521906 0.016392
v 0.153217 0.532135 0.021087
v 0.102135 0.538180 0.026250
v 0.051053 0.540314 0.034138
v -0.000028 0.542177 0.049656
v -0.051110 0.540314 0.034138
v -0.102192 0.538185 0.026250
v -0.153274 0.532157 0.021087
v -0.204356 0.521941 0.016392
v -0.255438 0.509806 0.012285
v -0.306520 0.497203 0.008264
v -0.357601 0.482068 0.004069
v -0.025569 0.492026 -0.045305
v -0.025569 0.541246 -0.045305
v -0.025569 0.492026 0.045307
v -0.025569 0.541246 0.045307
v 0.025512 0.492026 -0.045305
v 0.025512 0.541246 -0.045305
v 0.025512 0.492026 0.045307
v 0.025512 0.541246 0.045307
v -0.000028 0.542177 0.028096
v -0.000028 0.542177 -0.028094
v 0.025512 0.541246 0.006167
v 0.025512 0.541246 -0.006165
v 0.019838 0.541452 -0.019865
v 0.019838 0.541452 0.019867
v -0.028123 0.541152 0.000001
v -0.025569 0.541246 0.006167
v -0.025569 0.541246 -0.006165
v -0.019895 0.541452 0.019867
v -0.019895 0.541452 -0.019865
v -0.000028 0.542177 0.028096
v 0.028067 0.541152 0.000001
v -0.000028 0.491095 0.028096
v -0.019895 0.491820 0.019867
v -0.019895 0.491820 -0.019865
v 0.028067 0.492120 0.000001
v 0.019838 0.491820 0.019867
v 0.019838 0.491820 -0.019865
v -0.028123 0.492120 0.000001
v -0.000028 0.442246 -0.040932
v -0.000028 0.494963 -0.040932
v 0.028916 0.442246 -0.028943
v 0.028916 0.494963 -0.028943
v 0.040905 0.442246 0.000001
v 0.040905 0.494963 0.000001
v 0.028916 0.442246 0.028945
v 0.028916 0.494963 0.028945
v -0.000028 0.442246 0.040934
v -0.000028 0.494963 0.040934
v -0.028973 0.442246 0.028945
v -0.028973 0.494963 0.028945
v -0.040962 0.442246 0.000001
v -0.040962 0.494963 0.000001
v -0.028973 0.442246 -0.028943
v -0.028973 0.494963 -0.028943
v -0.000028 -0.374862 -0.029255
v 0.001792 0.546244 -0.034550
v 0.021219 -0.374862 -0.020686
v 0.023198 0.545138 -0.025004
v 0.031703 -0.374862 0.000001
v 0.035870 0.545138 0.000001
v 0.021219 -0.374862 0.020688
v 0.023198 0.545138 0.025006
v -0.000028 -0.374862 0.029257
v -0.001849 0.546244 -0.034550
v -0.021276 -0.374862 0.020688
v -0.023255 0.545138 0.025006
v -0.031759 -0.374862 0.000001
v -0.035927 0.545138 0.000001
v -0.021276 -0.374862 -0.020686
v -0.023255 0.545138 -0.025004
v -0.000028 0.085138 -0.021252
v 0.019083 0.085138 -0.015027
v 0.026699 0.085138 0.000001
v 0.019083 0.085138 0.015029
v -0.000028 0.085138 0.021254
v -0.019140 0.085138 0.015029
v -0.026756 0.085138 0.000001
v -0.019140 0.085138 -0.015027
v 0.019628 -0.299417 -0.016437
v 0.027959 -0.299417 0.000001
v 0.019628 -0.299417 0.016439
v -0.000028 -0.299417 0.023248
v -0.019685 -0.299417 0.016439
v -0.028015 -0.299417 0.000001
v -0.019685 -0.299417 -0.016437
v -0.000028 -0.299417 -0.023246
v 0.020845 -0.331473 -0.019717
v 0.030838 -0.331473 0.000001
v 0.020845 -0.331473 0.019719
v -0.000028 -0.331473 0.027887
v -0.020902 -0.331473 0.019719
v -0.030895 -0.331473 0.000001
v -0.020902 -0.331473 -0.019717
v -0.000028 -0.331473 -0.027885
v 0.022084 -0.365771 -0.022903
v 0.033691 -0.365771 0.000001
v 0.022084 -0.365771 0.022905
v -0.000028 -0.365771 0.032392
v -0.022141 -0.365771 0.022905
v -0.033748 -0.365771 0.000001
v -0.022141 -0.365771 -0.022903
v -0.000028 -0.365771 -0.032390
v -0.000028 0.341275 -0.034189
v 0.022428 0.341275 -0.024175
v 0.034680 0.341275 0.000001
v 0.022428 0.341275 0.024177
v -0.000028 0.341275 0.034191
v -0.022485 0.341275 0.024177
v -0.034736 0.341275 0.000001
v -0.022485 0.341275 -0.024175
v -0.000028 0.411920 -0.035699
v 0.023380 0.411920 -0.025243
v 0.036173 0.411920 0.000001
v 0.023380 0.411920 0.025245
v -0.000028 0.411920 0.035701
v -0.023437 0.411920 0.025245
v -0.036230 0.411920 0.000001
v -0.023437 0.411920 -0.025243
v -0.000028 0.478529 -0.035430
v 0.023539 0.478529 -0.025052
v 0.036235 0.478529 0.000001
v 0.023539 0.478529 0.025054
v -0.000028 0.478529 0.035432
v -0.023596 0.478529 0.025054
v -0.036292 0.478529 0.000001
v -0.023596 0.478529 -0.025052
v -0.001849 0.545138 -0.034550
v 0.001792 0.545138 -0.034550
v -0.000028 0.514690 -0.035393
v 0.001792 0.545138 0.034552
v -0.001849 0.545138 0.034552
v -0.000028 0.514690 0.035395
v 0.001792 0.546244 0.034552
v -0.001849 0.546244 0.034552
vt 0.375000 0.484375
vt 0.625000 0.484375
vt 0.375000 0.500000
vt 0.375000 0.984375
vt 0.625000 0.984375
vt 0.375000 1.000000
vt 0.359375 0.500000
vt 0.375000 0.750000
vt 0.359375 0.750000
vt 0.859375 0.500000
vt 0.875000 0.750000
vt 0.859375 0.750000
vt 0.625000 0.500000
vt 0.640625 0.500000
vt 0.640625 0.750000
vt 0.656250 0.500000
vt 0.656250 0.750000
vt 0.671875 0.500000
vt 0.671875 0.750000
vt 0.687500 0.500000
vt 0.687500 0.750000
vt 0.703125 0.500000
vt 0.703125 0.750000
vt 0.718750 0.500000
vt 0.718750 0.750000
vt 0.734375 0.500000
vt 0.734375 0.750000
vt 0.765625 0.500000
vt 0.781250 0.500000
vt 0.781250 0.750000
vt 0.765625 0.750000
vt 0.796875 0.500000
vt 0.796875 0.750000
vt 0.812500 0.500000
vt 0.812500 0.750000
vt 0.828125 0.500000
vt 0.828125 0.750000
vt 0.843750 0.500000
vt 0.843750 0.750000
vt 0.125000 0.500000
vt 0.140625 0.500000
vt 0.140625 0.750000
vt 0.156250 0.500000
vt 0.156250 0.750000
vt 0.171875 0.500000
vt 0.171875 0.750000
vt 0.187500 0.500000
vt 0.187500 0.750000
vt 0.203125 0.500000
vt 0.203125 0.750000
vt 0.218750 0.500000
vt 0.218750 0.750000
vt 0.234375 0.500000
vt 0.234375 0.750000
vt 0.265625 0.500000
vt 0.281250 0.500000
vt 0.281250 0.750000
vt 0.265625 0.750000
vt 0.296875 0.500000
vt 0.296875 0.750000
vt 0.312500 0.500000
vt 0.312500 0.750000
vt 0.328125 0.500000
vt 0.328125 0.750000
vt 0.343750 0.500000
vt 0.343750 0.750000
vt 0.625000 0.750000
vt 0.625000 0.765625
vt 0.375000 0.765625
vt 0.625000 0.781250
vt 0.375000 0.781250
vt 0.625000 0.796875
vt 0.375000 0.796875
vt 0.625000 0.812500
vt 0.375000 0.812500
vt 0.625000 0.828125
vt 0.375000 0.828125
vt 0.625000 0.843750
vt 0.375000 0.843750
vt 0.625000 0.859375
vt 0.375000 0.859375
vt 0.375000 0.867187
vt 0.625000 0.867188
vt 0.625000 0.875000
vt 0.375000 0.875000
vt 0.375000 0.882812
vt 0.625000 0.882812
vt 0.625000 0.890625
vt 0.375000 0.890625
vt 0.625000 0.906250
vt 0.375000 0.906250
vt 0.625000 0.921875
vt 0.375000 0.921875
vt 0.625000 0.937500
vt 0.375000 0.937500
vt 0.625000 0.953125
vt 0.375000 0.953125
vt 0.625000 0.968750
vt 0.375000 0.968750
vt 0.625000 0.250000
vt 0.625000 0.265625
vt 0.375000 0.265625
vt 0.625000 0.281250
vt 0.375000 0.281250
vt 0.625000 0.296875
vt 0.375000 0.296875
vt 0.625000 0.312500
vt 0.375000 0.312500
vt 0.625000 0.328125
vt 0.375000 0.328125
vt 0.625000 0.343750
vt 0.375000 0.343750
vt 0.625000 0.359375
vt 0.375000 0.359375
vt 0.375000 0.367188
vt 0.625000 0.367188
vt 0.625000 0.375000
vt 0.375000 0.375000
vt 0.375000 0.382813
vt 0.625000 0.382812
vt 0.625000 0.390625
vt 0.375000 0.390625
vt 0.625000 0.406250
vt 0.375000 0.406250
vt 0.625000 0.421875
vt 0.375000 0.421875
vt 0.625000 0.437500
vt 0.375000 0.437500
vt 0.625000 0.453125
vt 0.375000 0.453125
vt 0.625000 0.468750
vt 0.375000 0.468750
vt 1.000000 0.500000
vt 1.000000 1.000000
vt 0.875000 1.000000
vt 0.875000 0.500000
vt 0.750000 1.000000
vt 0.750000 0.500000
vt 0.625000 1.000000
vt 0.625000 0.500000
vt 0.500000 1.000000
vt 0.500000 0.500000
vt 0.375000 1.000000
vt 0.375000 0.500000
vt 0.250000 1.000000
vt 0.250000 0.500000
vt 0.419706 0.419706
vt 0.250000 0.490000
vt 0.080294 0.419706
vt 0.010000 0.250000
vt 0.080294 0.080294
vt 0.250000 0.010000
vt 0.419706 0.080294
vt 0.490000 0.250000
vt 0.125000 1.000000
vt 0.125000 0.500000
vt 0.000000 1.000000
vt 0.000000 0.500000
vt 0.750000 0.490000
vt 0.919706 0.419706
vt 0.990000 0.250000
vt 0.919706 0.080294
vt 0.750000 0.010000
vt 0.580294 0.080294
vt 0.510000 0.250000
vt 0.580294 0.419706
vt 0.263303 0.015510
vt 0.263303 0.484490
vt 0.236697 0.484490
vt 0.236697 0.015510
vt 0.263303 0.015510
vt 0.263303 0.484490
vt 0.250000 0.015510
vt 0.250000 0.015510
vt 0.236697 0.484490
vt 0.236697 0.015510
vt 0.250000 0.484490
vt 0.250000 0.484490
vt 0.125000 0.963799
vt 0.125000 1.000000
vt 0.009798 1.000000
vt 0.000000 0.983452
vt 0.000000 0.963800
vt 0.875000 0.963799
vt 0.875000 1.000000
vt 0.750000 1.000000
vt 0.750000 0.963800
vt 0.625000 1.000000
vt 0.625000 0.963800
vt 0.500000 0.963799
vt 0.500000 0.983452
vt 0.490202 1.000000
vt 0.375000 1.000000
vt 0.375000 0.963800
vt 0.250000 1.000000
vt 0.250000 0.963799
vt 1.000000 0.963799
vt 1.000000 0.983452
vt 0.990202 1.000000
vt 0.080294 0.419706
vt 0.010000 0.250000
vt 0.080294 0.080294
vt 0.750000 0.490000
vt 0.919706 0.419706
vt 0.990000 0.250000
vt 0.919706 0.080294
vt 0.750000 0.010000
vt 0.580294 0.080294
vt 0.510000 0.250000
vt 0.580294 0.419706
vt 0.125000 0.541003
vt 0.125000 0.750000
vt 0.000000 0.750000
vt 0.000000 0.541003
vt 0.250000 0.541003
vt 0.250000 0.750000
vt 0.375000 0.541003
vt 0.375000 0.750000
vt 0.500000 0.541003
vt 0.500000 0.750000
vt 0.625000 0.541003
vt 0.625000 0.750000
vt 0.750000 0.541003
vt 0.750000 0.750000
vt 0.875000 0.541003
vt 0.875000 0.750000
vt 1.000000 0.541003
vt 1.000000 0.750000
vt 1.000000 0.523581
vt 0.875000 0.523581
vt 0.750000 0.523581
vt 0.625000 0.523581
vt 0.500000 0.523581
vt 0.375000 0.523581
vt 0.250000 0.523581
vt 0.125000 0.523581
vt 0.000000 0.523581
vt 0.125000 0.504941
vt 0.000000 0.504941
vt 0.250000 0.504941
vt 0.375000 0.504941
vt 0.500000 0.504941
vt 0.625000 0.504941
vt 0.750000 0.504941
vt 0.875000 0.504941
vt 1.000000 0.504941
vt 1.000000 0.500000
vt 0.875000 0.500000
vt 0.750000 0.500000
vt 0.625000 0.500000
vt 0.500000 0.500000
vt 0.375000 0.500000
vt 0.250000 0.500000
vt 0.125000 0.500000
vt 0.000000 0.500000
vt 0.125000 0.889205
vt 0.000000 0.889205
vt 0.250000 0.889205
vt 0.375000 0.889205
vt 0.500000 0.889205
vt 0.625000 0.889205
vt 0.750000 0.889205
vt 0.875000 0.889205
vt 1.000000 0.889205
vt 0.125000 0.927599
vt 0.000000 0.927599
vt 0.250000 0.927599
vt 0.375000 0.927599
vt 0.500000 0.927599
vt 0.625000 0.927599
vt 0.750000 0.927599
vt 0.875000 0.927599
vt 1.000000 0.927599
vt 0.509798 1.000000
vt 0.250000 0.490000
vt 0.250000 0.010000
vt 0.419706 0.419706
vt 0.419706 0.080294
vt 0.490000 0.250000
vn 0.0952 0.0000 -0.9955
vn -0.0875 0.0000 0.9962
vn -0.1608 -0.9868 0.0169
vn -0.3436 0.9388 -0.0232
vn 0.3414 0.9398 -0.0161
vn 0.2836 0.9589 -0.0127
vn 0.2394 0.9709 -0.0092
vn 0.2315 0.9728 -0.0064
vn 0.1969 0.9804 -0.0038
vn 0.1184 0.9930 -0.0015
vn 0.0420 0.9991 -0.0002
vn -0.0421 0.9991 -0.0004
vn -0.1184 0.9930 -0.0022
vn -0.1969 0.9804 -0.0055
vn -0.2315 0.9728 -0.0093
vn -0.2393 0.9709 -0.0133
vn -0.2834 0.9588 -0.0183
vn 0.1534 -0.9879 0.0244
vn 0.1098 -0.9938 0.0190
vn 0.0929 -0.9956 0.0136
vn 0.1089 -0.9940 0.0095
vn 0.0838 -0.9965 0.0056
vn 0.0325 -0.9995 0.0022
vn -0.0326 -0.9995 0.0003
vn 0.0326 -0.9995 0.0002
vn -0.0326 -0.9995 0.0015
vn -0.0839 -0.9965 0.0039
vn -0.1090 -0.9940 0.0066
vn -0.0930 -0.9956 0.0094
vn -0.1098 -0.9939 0.0132
vn 0.0789 0.0000 0.9969
vn 0.0818 0.0000 0.9966
vn 0.0785 0.0000 0.9969
vn 0.0801 0.0000 0.9968
vn 0.0915 0.0000 0.9958
vn 0.1006 0.0000 0.9949
vn 0.1526 0.0000 0.9883
vn 0.1679 0.0000 0.9858
vn -0.4007 0.0000 0.9162
vn -0.1526 0.0000 0.9883
vn -0.1006 0.0000 0.9949
vn -0.0915 0.0000 0.9958
vn -0.0801 0.0000 0.9968
vn -0.0785 0.0000 0.9969
vn -0.0818 0.0000 0.9966
vn -0.0959 0.0000 -0.9954
vn -0.0818 0.0000 -0.9966
vn -0.0785 0.0000 -0.9969
vn -0.0801 0.0000 -0.9968
vn -0.0915 0.0000 -0.9958
vn -0.1006 0.0000 -0.9949
vn -0.1526 0.0000 -0.9883
vn -0.1679 0.0000 -0.9858
vn 0.4007 0.0000 -0.9162
vn 0.1526 0.0000 -0.9883
vn 0.1006 0.0000 -0.9949
vn 0.0915 0.0000 -0.9958
vn 0.0801 0.0000 -0.9968
vn 0.0785 0.0000 -0.9969
vn 0.0818 0.0000 -0.9966
vn -0.4007 0.0000 -0.9162
vn -0.1679 0.0000 0.9858
vn 0.1679 0.0000 -0.9858
vn 0.4007 0.0000 0.9162
vn 0.0364 0.9993 0.0000
vn -0.0364 -0.9993 0.0000
vn 0.0364 -0.9993 0.0000
vn -0.0364 0.9993 0.0000
vn 0.3827 0.0000 -0.9239
vn 0.9239 0.0000 -0.3827
vn 0.9239 0.0000 0.3827
vn 0.3827 0.0000 0.9239
vn -0.3827 0.0000 0.9239
vn -0.9239 0.0000 0.3827
vn 0.0000 1.0000 0.0000
vn -0.9239 0.0000 -0.3827
vn -0.3827 0.0000 -0.9239
vn 0.0000 -1.0000 0.0000
vn 1.0000 0.0000 0.0000
vn 0.0000 0.0000 1.0000
vn -1.0000 0.0000 0.0000
vn 0.0000 0.0000 -1.0000
vn -0.4051 0.0018 -0.9143
vn 0.8920 0.0049 -0.4520
vn 0.8920 0.0049 0.4520
vn -0.4051 0.0018 0.9143
vn -0.8920 0.0049 0.4520
vn 0.4051 0.0018 -0.9143
vn -0.8920 0.0049 -0.4520
vn -0.3187 0.0044 -0.9479
vn -0.8920 0.0029 -0.4520
vn -0.8920 0.0029 0.4520
vn -0.3187 0.0044 0.9479
vn 0.3187 0.0044 0.9479
vn 0.8920 0.0029 0.4520
vn 0.8920 0.0029 -0.4520
vn 0.3187 0.0044 -0.9479
vn 0.3440 0.1215 -0.9311
vn 0.8891 0.0799 -0.4506
vn 0.8891 0.0799 0.4506
vn 0.3440 0.1215 0.9311
vn -0.3440 0.1215 0.9311
vn -0.8891 0.0799 0.4506
vn -0.8891 0.0799 -0.4506
vn -0.3440 0.1215 -0.9311
vn -0.3776 0.1099 -0.9194
vn -0.8895 0.0740 -0.4508
vn -0.8895 0.0740 0.4508
vn -0.3776 0.1099 0.9194
vn 0.3776 0.1099 0.9194
vn 0.8895 0.0740 0.4508
vn 0.8895 0.0740 -0.4508
vn 0.3776 0.1099 -0.9194
vn 0.3692 -0.2786 -0.8866
vn 0.8755 -0.1915 -0.4437
vn 0.8755 -0.1915 0.4437
vn 0.3692 -0.2786 0.8866
vn -0.3692 -0.2786 0.8866
vn -0.8755 -0.1915 0.4437
vn -0.8755 -0.1915 -0.4437
vn -0.3692 -0.2786 -0.8866
vn -0.3635 -0.0425 -0.9306
vn -0.8917 -0.0278 -0.4519
vn -0.8917 -0.0278 0.4519
vn -0.3635 -0.0425 0.9306
vn 0.3635 -0.0425 0.9306
vn 0.8917 -0.0278 0.4519
vn 0.8917 -0.0278 -0.4519
vn 0.3635 -0.0425 -0.9306
vn -0.4075 -0.0194 -0.9130
vn -0.8918 -0.0189 -0.4520
vn -0.8918 -0.0189 0.4520
vn -0.4075 -0.0194 0.9130
vn 0.4075 -0.0194 0.9130
vn 0.8918 -0.0189 0.4520
vn 0.8918 -0.0189 -0.4520
vn 0.4075 -0.0194 -0.9130
vn -0.4054 0.0027 -0.9141
vn -0.8920 -0.0008 -0.4520
vn -0.8920 -0.0008 0.4520
vn -0.4054 0.0027 0.9141
vn 0.4054 0.0027 0.9141
vn 0.8920 -0.0008 0.4520
vn 0.8920 -0.0008 -0.4520
vn 0.4054 0.0027 -0.9141
vn 0.4051 0.0018 0.9143
vn 0.0000 0.0277 -0.9996
vn 0.0000 0.0277 0.9996
usemtl Material.003
s off
f 3/1/1 32/2/1 2/3/1
f 33/4/2 62/5/2 1/6/2
f 3/7/3 2/8/3 47/9/3
f 18/10/4 1/11/4 62/12/4
f 2/13/5 32/14/5 48/15/5
f 32/14/6 31/16/6 49/17/6 48/15/6
f 31/16/7 30/18/7 50/19/7 49/17/7
f 30/18/8 29/20/8 51/21/8 50/19/8
f 29/20/9 28/22/9 52/23/9 51/21/9
f 28/22/10 27/24/10 53/25/10 52/23/10
f 27/24/11 26/26/11 54/27/11 53/25/11
f 24/28/12 23/29/12 57/30/12 56/31/12
f 23/29/13 22/32/13 58/33/13 57/30/13
f 22/32/14 21/34/14 59/35/14 58/33/14
f 21/34/15 20/36/15 60/37/15 59/35/15
f 20/36/16 19/38/16 61/39/16 60/37/16
f 19/38/17 18/10/17 62/12/17 61/39/17
f 1/40/18 17/41/18 33/42/18
f 17/41/19 16/43/19 34/44/19 33/42/19
f 16/43/20 15/45/20 35/46/20 34/44/20
f 15/45/21 14/47/21 36/48/21 35/46/21
f 14/47/22 13/49/22 37/50/22 36/48/22
f 13/49/23 12/51/23 38/52/23 37/50/23
f 12/51/24 11/53/24 39/54/24 38/52/24
f 9/55/25 8/56/25 42/57/25 41/58/25
f 8/56/26 7/59/26 43/60/26 42/57/26
f 7/59/27 6/61/27 44/62/27 43/60/27
f 6/61/28 5/63/28 45/64/28 44/62/28
f 5/63/29 4/65/29 46/66/29 45/64/29
f 4/65/30 3/7/30 47/9/30 46/66/30
f 2/67/31 48/68/31 47/69/31
f 47/69/32 48/68/32 49/70/32 46/71/32
f 46/71/33 49/70/33 50/72/33 45/73/33
f 45/73/34 50/72/34 51/74/34 44/75/34
f 44/75/35 51/74/35 52/76/35 43/77/35
f 43/77/36 52/76/36 53/78/36 42/79/36
f 42/79/37 53/78/37 54/80/37 41/81/37
f 69/82/38 70/83/38 55/84/38 40/85/38
f 65/86/39 66/87/39 56/88/39 39/89/39
f 39/89/40 56/88/40 57/90/40 38/91/40
f 38/91/41 57/90/41 58/92/41 37/93/41
f 37/93/42 58/92/42 59/94/42 36/95/42
f 36/95/43 59/94/43 60/96/43 35/97/43
f 35/97/44 60/96/44 61/98/44 34/99/44
f 34/99/45 61/98/45 62/5/45 33/4/45
f 1/100/46 18/101/46 17/102/46
f 17/102/47 18/101/47 19/103/47 16/104/47
f 16/104/48 19/103/48 20/105/48 15/106/48
f 15/106/49 20/105/49 21/107/49 14/108/49
f 14/108/50 21/107/50 22/109/50 13/110/50
f 13/110/51 22/109/51 23/111/51 12/112/51
f 12/112/52 23/111/52 24/113/52 11/114/52
f 63/115/53 64/116/53 25/117/53 10/118/53
f 67/119/54 68/120/54 26/121/54 9/122/54
f 9/122/55 26/121/55 27/123/55 8/124/55
f 8/124/56 27/123/56 28/125/56 7/126/56
f 7/126/57 28/125/57 29/127/57 6/128/57
f 6/128/58 29/127/58 30/129/58 5/130/58
f 5/130/59 30/129/59 31/131/59 4/132/59
f 4/132/60 31/131/60 32/2/60 3/1/60
f 11/114/61 24/113/61 64/116/61 63/115/61
f 40/85/62 55/84/62 66/87/62 65/86/62
f 10/118/63 25/117/63 68/120/63 67/119/63
f 41/81/64 54/80/64 70/83/64 69/82/64
f 70/83/65 54/80/65 26/121/65 68/120/65
f 65/86/66 39/89/66 11/114/66 63/115/66
f 69/82/67 40/85/67 10/118/67 67/119/67
f 40/85/66 65/86/66 63/115/66 10/118/66
f 41/81/67 69/82/67 67/119/67 9/122/67
f 25/117/68 64/116/68 66/87/68 55/84/68
f 55/84/65 70/83/65 68/120/65 25/117/65
f 56/88/68 66/87/68 64/116/68 24/113/68
f 91/133/69 92/134/69 94/135/69 93/136/69
f 93/136/70 94/135/70 96/137/70 95/138/70
f 95/138/71 96/137/71 98/139/71 97/140/71
f 97/140/72 98/139/72 100/141/72 99/142/72
f 99/142/73 100/141/73 102/143/73 101/144/73
f 101/144/74 102/143/74 104/145/74 103/146/74
f 94/147/75 92/148/75 106/149/75 104/150/75 102/151/75 100/152/75 98/153/75 96/154/75
f 103/146/76 104/145/76 106/155/76 105/156/76
f 105/156/77 106/155/77 92/157/77 91/158/77
f 91/159/78 93/160/78 95/161/78 97/162/78 99/163/78 101/164/78 103/165/78 105/166/78
f 185/167/75 108/168/75 116/169/75 186/170/75
f 182/171/79 180/172/79 108/168/79 185/167/79
f 183/173/80 182/171/80 185/167/80 186/174/80
f 179/175/81 183/176/81 186/170/81 116/169/81
f 180/177/82 179/175/82 116/169/82 108/178/82
usemtl Material.002
f 178/179/83 122/180/83 179/181/83 181/182/83 171/183/83
f 172/184/84 110/185/84 112/186/84 173/187/84
f 173/187/85 112/186/85 114/188/85 174/189/85
f 175/190/86 184/191/86 183/192/86 118/193/86 176/194/86
f 176/194/87 118/193/87 120/195/87 177/196/87
f 171/197/88 181/198/88 180/199/88 110/185/88 172/184/88
f 177/196/89 120/195/89 122/180/89 178/179/89
f 183/176/75 179/175/75 122/200/75 120/201/75 118/202/75
f 107/203/78 109/204/78 111/205/78 113/206/78 115/207/78 117/208/78 119/209/78 121/210/78
f 137/211/90 130/212/90 123/213/90 138/214/90
f 136/215/91 129/216/91 130/212/91 137/211/91
f 135/217/92 128/218/92 129/216/92 136/215/92
f 134/219/93 127/220/93 128/218/93 135/217/93
f 133/221/94 126/222/94 127/220/94 134/219/94
f 132/223/95 125/224/95 126/222/95 133/221/95
f 131/225/96 124/226/96 125/224/96 132/223/96
f 138/227/97 123/228/97 124/226/97 131/225/97
f 146/229/98 138/227/98 131/225/98 139/230/98
f 139/230/99 131/225/99 132/223/99 140/231/99
f 140/231/100 132/223/100 133/221/100 141/232/100
f 141/232/101 133/221/101 134/219/101 142/233/101
f 142/233/102 134/219/102 135/217/102 143/234/102
f 143/234/103 135/217/103 136/215/103 144/235/103
f 144/235/104 136/215/104 137/211/104 145/236/104
f 145/236/105 137/211/105 138/214/105 146/237/105
f 153/238/106 145/236/106 146/237/106 154/239/106
f 152/240/107 144/235/107 145/236/107 153/238/107
f 151/241/108 143/234/108 144/235/108 152/240/108
f 150/242/109 142/233/109 143/234/109 151/241/109
f 149/243/110 141/232/110 142/233/110 150/242/110
f 148/244/111 140/231/111 141/232/111 149/243/111
f 147/245/112 139/230/112 140/231/112 148/244/112
f 154/246/113 146/229/113 139/230/113 147/245/113
f 107/247/114 154/246/114 147/245/114 109/248/114
f 109/248/115 147/245/115 148/244/115 111/249/115
f 111/249/116 148/244/116 149/243/116 113/250/116
f 113/250/117 149/243/117 150/242/117 115/251/117
f 115/251/118 150/242/118 151/241/118 117/252/118
f 117/252/119 151/241/119 152/240/119 119/253/119
f 119/253/120 152/240/120 153/238/120 121/254/120
f 121/254/121 153/238/121 154/239/121 107/255/121
f 130/212/122 162/256/122 155/257/122 123/213/122
f 129/216/123 161/258/123 162/256/123 130/212/123
f 128/218/124 160/259/124 161/258/124 129/216/124
f 127/220/125 159/260/125 160/259/125 128/218/125
f 126/222/126 158/261/126 159/260/126 127/220/126
f 125/224/127 157/262/127 158/261/127 126/222/127
f 124/226/128 156/263/128 157/262/128 125/224/128
f 123/228/129 155/264/129 156/263/129 124/226/129
f 162/256/130 170/265/130 163/266/130 155/257/130
f 161/258/131 169/267/131 170/265/131 162/256/131
f 160/259/132 168/268/132 169/267/132 161/258/132
f 159/260/133 167/269/133 168/268/133 160/259/133
f 158/261/134 166/270/134 167/269/134 159/260/134
f 157/262/135 165/271/135 166/270/135 158/261/135
f 156/263/136 164/272/136 165/271/136 157/262/136
f 155/264/137 163/273/137 164/272/137 156/263/137
f 170/265/138 178/179/138 171/183/138 163/266/138
f 169/267/139 177/196/139 178/179/139 170/265/139
f 168/268/140 176/194/140 177/196/140 169/267/140
f 167/269/141 175/190/141 176/194/141 168/268/141
f 166/270/142 174/189/142 175/190/142 167/269/142
f 165/271/143 173/187/143 174/189/143 166/270/143
f 164/272/144 172/184/144 173/187/144 165/271/144
f 163/273/145 171/197/145 172/184/145 164/272/145
f 174/189/146 114/188/146 182/274/146 184/191/146 175/190/146
f 179/175/147 180/177/147 181/275/147
f 182/171/148 183/173/148 184/276/148
f 110/277/75 180/172/75 182/171/75 114/278/75 112/279/75
